<svg width="24" height="24" viewBox="0 0 24 24" fill="none" xmlns="http://www.w3.org/2000/svg">
<path d="M11.2376 21.875C10.9959 21.775 10.7751 21.6333 10.5751 21.45L2.5501 13.425C2.36676 13.225 2.2251 13.0041 2.1251 12.7625C2.0251 12.5208 1.9751 12.2666 1.9751 12C1.9751 11.7333 2.0251 11.475 2.1251 11.225C2.2251 10.975 2.36676 10.7583 2.5501 10.575L10.5751 2.54998C10.7751 2.34998 10.9959 2.20414 11.2376 2.11248C11.4793 2.02081 11.7334 1.97498 12.0001 1.97498C12.2668 1.97498 12.5251 2.02081 12.7751 2.11248C13.0251 2.20414 13.2418 2.34998 13.4251 2.54998L21.4501 10.575C21.6501 10.7583 21.7959 10.975 21.8876 11.225C21.9793 11.475 22.0251 11.7333 22.0251 12C22.0251 12.2666 21.9793 12.5208 21.8876 12.7625C21.7959 13.0041 21.6501 13.225 21.4501 13.425L13.4251 21.45C13.2418 21.6333 13.0251 21.775 12.7751 21.875C12.5251 21.975 12.2668 22.025 12.0001 22.025C11.7334 22.025 11.4793 21.975 11.2376 21.875Z" fill="currentColor"/>
</svg>
